<svg width="60" height="60" viewBox="0 0 60 60" fill="none" xmlns="http://www.w3.org/2000/svg">
<g clip-path="url(#clip0_762511_129)">
<path d="M12.0815 56.0124C12.0815 58.2149 10.5515 60.0024 8.66361 60.0024H8.65075C7.74484 60.0024 6.87604 59.5826 6.23547 58.8353C5.5949 58.0879 5.23503 57.0743 5.23503 56.0174V3.98744C5.23503 1.78494 6.76503 0.00244141 8.65075 0.00244141H8.66361C10.5515 0.00244141 12.0815 1.78744 12.0815 3.98994V56.0124ZM4.31574 6.71494H1.92645C1.42954 6.7416 0.960513 6.99049 0.616744 7.40995C0.272976 7.82941 0.0808749 8.38721 0.0803235 8.96756C0.079772 9.5479 0.270812 10.1062 0.613783 10.5265C0.956753 10.9469 1.42531 11.197 1.92217 11.2249H4.3136L4.31574 6.71494ZM54.8658 14.8749H20.5801C19.0724 14.8776 17.6272 15.5775 16.5611 16.8212C15.4951 18.0649 14.8952 19.751 14.8929 21.5099V44.6299C14.8929 45.5006 15.0399 46.3627 15.3255 47.1671C15.6111 47.9715 16.0297 48.7024 16.5574 49.3181C17.0851 49.9337 17.7115 50.4221 18.401 50.7553C19.0905 51.0885 19.8295 51.2599 20.5758 51.2599H54.8658C56.3734 51.2573 57.8187 50.5574 58.8847 49.3137C59.9508 48.0699 60.5507 46.3838 60.553 44.6249V21.5049C60.553 19.7466 59.9542 18.0602 58.8885 16.8168C57.8227 15.5735 56.3773 14.8749 54.8701 14.8749H54.8658ZM57.6087 44.6249C57.6059 45.4693 57.3171 46.2781 56.8053 46.8752C56.2936 47.4723 55.6003 47.8092 54.8765 47.8124H20.5865C19.08 47.8124 17.8586 46.3874 17.8586 44.6299V21.5074C17.8614 20.6635 18.1499 19.855 18.6612 19.2581C19.1725 18.6611 19.8653 18.3239 20.5886 18.3199H54.8744C55.5981 18.3232 56.2914 18.6601 56.8032 19.2572C57.315 19.8542 57.6037 20.6631 57.6065 21.5074L57.6087 44.6249ZM25.9308 13.5924C26.4593 13.5924 26.9662 13.3475 27.3399 12.9115C27.7137 12.4754 27.9236 11.8841 27.9236 11.2674V6.54994C27.9236 5.93331 27.7137 5.34194 27.3399 4.90592C26.9662 4.4699 26.4593 4.22494 25.9308 4.22494C25.4022 4.22494 24.8953 4.4699 24.5216 4.90592C24.1479 5.34194 23.9379 5.93331 23.9379 6.54994V6.62244V11.2699C23.9379 11.8866 24.1479 12.4779 24.5216 12.914C24.8953 13.35 25.4022 13.5949 25.9308 13.5949V13.5924ZM49.5215 13.5924C50.0501 13.5924 50.5569 13.3475 50.9307 12.9115C51.3044 12.4754 51.5144 11.8841 51.5144 11.2674V6.61744C51.5144 6.00081 51.3044 5.40944 50.9307 4.97342C50.5569 4.5374 50.0501 4.29244 49.5215 4.29244C48.993 4.29244 48.4861 4.5374 48.1124 4.97342C47.7386 5.40944 47.5287 6.00081 47.5287 6.61744V11.2674C47.5287 12.5524 48.4222 13.5924 49.5215 13.5924ZM28.9008 6.71494H46.5472V11.2249H28.9008V6.71494ZM59.0937 8.94244C59.0925 8.35274 58.8912 7.78757 58.5338 7.37059C58.1764 6.95361 57.692 6.71876 57.1865 6.71744H52.7701V11.2274H57.1844C57.6897 11.2255 58.1738 10.9904 58.5311 10.5736C58.8884 10.1567 59.0898 9.59194 59.0915 9.00244L59.0937 8.94244Z" fill="#2D7C73"/>
<path d="M26.22 37.5276H24.1414V35.2826H22.2343V41.7176H24.1414V39.1176H26.22V41.7176H28.1271V35.2826H26.22V37.5276ZM34.71 36.0251C34.0248 35.4612 33.2063 35.1598 32.3678 35.1626C31.4807 35.1626 30.66 35.4926 29.9893 36.0551L30.0021 36.0451C29.735 36.3338 29.522 36.6838 29.3763 37.0732C29.2306 37.4625 29.1555 37.8828 29.1557 38.3076L29.16 38.5001V38.4926L29.1578 38.6351C29.1578 39.2801 29.3186 39.8826 29.5971 40.3901L29.5907 40.3776C29.8586 40.8601 30.2314 41.2376 30.6728 41.4726L30.6878 41.4801C31.1443 41.6976 31.6757 41.8251 32.2307 41.8251L32.4107 41.8201H32.4021L32.5114 41.8226C33.0921 41.8226 33.645 41.6751 34.1421 41.4101L34.1186 41.4226C34.5621 41.1751 34.9221 40.7901 35.1621 40.3126L35.1686 40.3001C35.4073 39.775 35.5316 39.1895 35.5307 38.5951L35.5286 38.4501V38.4576L35.5328 38.2726C35.5328 37.3926 35.2178 36.5976 34.7121 36.0351L34.71 36.0251ZM33.3021 39.9151C33.1886 40.0489 33.0534 40.1552 32.9044 40.2277C32.7555 40.3002 32.5957 40.3376 32.4343 40.3376L32.3528 40.3351H32.3571L32.2993 40.3376C31.9674 40.3383 31.6487 40.1865 31.4121 39.9151C31.1855 39.494 31.0657 39.0066 31.0664 38.5094C31.0672 38.0121 31.1885 37.5253 31.4164 37.1051L31.41 37.1151C31.6564 36.8526 31.9843 36.6951 32.3464 36.6951C32.7086 36.6951 33.0364 36.8551 33.2828 37.1176C33.4134 37.3017 33.5089 37.5145 33.5678 37.7433C33.6267 37.9722 33.6457 38.2125 33.6236 38.4501V38.4426C33.6722 38.9676 33.5557 39.4954 33.2957 39.9276L33.3 39.9201L33.3021 39.9151ZM35.895 36.8651H37.8364V41.7176H39.7436V36.8651H41.685V35.2801H35.895V36.8651ZM44.4536 38.9926H47.4107V37.6676H44.4536V36.6451H47.6336V35.2801H42.5464V41.7151H47.7364V40.2501H44.4536V38.9926ZM50.655 35.2826H48.7479V41.7176H53.6293V40.1326H50.6572L50.655 35.2826ZM22.7335 30.0701L24.5207 28.9651L26.325 30.0701L25.9821 27.7451L27.4264 26.1001L25.4335 25.7601L24.5228 23.6351L23.6293 25.7601L21.6364 26.1001L23.0807 27.7451L22.7335 30.0701ZM29.3485 30.0701L31.1357 28.9651L32.9228 30.0701L32.58 27.7451L34.0221 26.1001L32.0293 25.7601L31.1357 23.6351L30.2421 25.7601L28.2321 26.1001L29.6764 27.7451L29.3485 30.0701ZM35.9464 30.0701L37.7336 28.9651L39.5207 30.0701L39.1779 27.7451L40.6221 26.1001L38.6293 25.7601L37.7357 23.6351L36.8421 25.7601L34.8321 26.1001L36.2936 27.7451L35.9464 30.0701ZM42.5443 30.0701L44.3314 28.9651L46.1186 30.0701L45.7757 27.7451L47.22 26.1001L45.2272 25.7601L44.3336 23.6351L43.44 25.7601L41.43 26.1001L42.8914 27.7451L42.5443 30.0701ZM50.9272 23.6351L50.0336 25.7601L48.0407 26.1001L49.4829 27.7451L49.14 30.0701L50.9272 28.9651L52.7143 30.0701L52.3715 27.7451L53.8329 26.1001L51.8229 25.7601L50.9272 23.6351ZM13.1614 6.71509H22.6971V11.2251H13.1614V6.71509Z" fill="#2D7C73"/>
</g>
<defs>
<clipPath id="clip0_762511_129">
<rect width="60" height="60" fill="white"/>
</clipPath>
</defs>
</svg>
